# File created by Blade
# Date/Time:  Tue Sep 23 19:18:47 2014
# Frame Rate: 120.000 fps
#------------------------------------------------------
:FULLY-SPECIFIED
:DEGREES
2032
root 2.126225 33.002145 0.166779 54.096355 -50.945968 -19.584134
Spine -34.016883 2.993121 1.513503
Head 12.300656 18.011130 2.790253
LeftShoulder -21.595129 45.858431 16.321795
LeftArm 45.060689 -35.686719 -81.581292
LeftForeArm -0.008411 0.000000 76.940585
LeftHand -56.068317 0.000000 12.220185
LeftHandThumb1 -26.253704 0.000000 33.147579
RightShoulder -12.831705 -37.619592 -25.027766
RightArm 56.992781 18.946256 65.346394
RightForeArm 36.903477 -0.000000 11.565954
RightHand 20.837081 0.000000 -12.606890
RightHandThumb1 -24.326973 -0.000000 -32.862282
LeftUpLeg -34.443871 5.494162 4.200402
LeftLeg 1.124663 -0.000000 -0.000000
LeftFoot -7.900723 15.090590 0.729566
LeftToeBase 4.287143 -0.000000 -0.000000
RightUpLeg -38.649195 -6.652584 10.320902
RightLeg -0.177248 -0.000000 0.000000
RightFoot 2.992338 -6.861412 15.183640
RightToeBase 5.424933 -0.000000 -0.000000
2033
root 2.093684 32.986026 0.174688 53.316355 -50.375865 -18.882426
Spine -34.055184 2.761370 1.729975
Head 12.457825 17.883448 2.728283
LeftShoulder -21.537133 45.809453 16.389591
LeftArm 45.174299 -35.495503 -81.432980
LeftForeArm -0.274693 0.000000 76.821709
LeftHand -56.082581 0.000000 12.445122
LeftHandThumb1 -26.253704 0.000000 33.147579
RightShoulder -12.765407 -37.543064 -24.930191
RightArm 57.106876 18.772538 65.061612
RightForeArm 36.429714 -0.000000 11.855407
RightHand 20.820008 -0.000000 -12.585613
RightHandThumb1 -24.326973 -0.000000 -32.862282
LeftUpLeg -34.260924 5.171859 4.182496
LeftLeg 1.059726 -0.000000 -0.000000
LeftFoot -7.916360 14.675534 0.626934
LeftToeBase 4.235321 -0.000000 -0.000000
RightUpLeg -39.210632 -6.246681 10.068448
RightLeg -0.158821 -0.000000 0.000000
RightFoot 3.078987 -6.864372 14.666250
RightToeBase 5.271926 -0.000000 -0.000000
2034
root 2.049362 32.971538 0.184981 52.545888 -49.727738 -18.289661
Spine -34.027287 2.577070 1.986302
Head 12.635858 17.723136 2.741727
LeftShoulder -21.403898 45.811042 16.526018
LeftArm 45.398043 -35.348969 -81.486757
LeftForeArm -0.517789 0.000000 76.777439
LeftHand -56.088730 -0.000000 12.544131
LeftHandThumb1 -26.253704 0.000000 33.147579
RightShoulder -12.769950 -37.524325 -24.766486
RightArm 57.203208 18.620495 64.810451
RightForeArm 35.934278 -0.000000 12.150855
RightHand 20.847361 -0.000000 -12.666431
RightHandThumb1 -24.326973 -0.000000 -32.862282
LeftUpLeg -33.971007 4.969976 4.196152
LeftLeg 0.950180 -0.000000 -0.000000
LeftFoot -7.978495 14.119185 0.473333
LeftToeBase 4.272428 -0.000000 -0.000000
RightUpLeg -39.757316 -6.040159 10.006205
RightLeg 0.049695 -0.000000 -0.000000
RightFoot 3.128709 -6.666710 14.322851
RightToeBase 5.214313 -0.000000 -0.000000
2035
root 2.008701 32.959049 0.190385 51.917089 -49.084695 -17.723778
Spine -34.100172 2.422488 2.205521
Head 12.686354 17.477071 2.669902
LeftShoulder -21.191878 45.770109 16.726363
LeftArm 45.500176 -35.234558 -81.429833
LeftForeArm -0.922570 -0.000000 76.812222
LeftHand -55.993763 0.000000 12.930627
LeftHandThumb1 -26.253704 0.000000 33.147579
RightShoulder -12.822208 -37.507387 -24.586373
RightArm 57.304150 18.515022 64.676132
RightForeArm 35.293130 0.000000 12.497610
RightHand 20.839043 -0.000000 -12.808186
RightHandThumb1 -24.326973 -0.000000 -32.862282
LeftUpLeg -33.830373 4.858933 4.151890
LeftLeg 0.902278 -0.000000 -0.000000
LeftFoot -8.078601 13.511707 0.401860
LeftToeBase 4.427035 -0.000000 -0.000000
RightUpLeg -40.373518 -5.533744 9.694179
RightLeg 0.227415 -0.000000 -0.000000
RightFoot 3.219280 -6.868420 14.279529
RightToeBase 4.976736 -0.000000 -0.000000
